<svg width="43" height="37" viewBox="0 0 43 37" fill="none" xmlns="http://www.w3.org/2000/svg">
<path d="M0 0H37C40.3137 0 43 2.68629 43 6V31C43 34.3137 40.3137 37 37 37H0V0Z" fill="#21262D"/>
<path d="M0.5 0.5H37C40.0376 0.5 42.5 2.96243 42.5 6V31C42.5 34.0376 40.0376 36.5 37 36.5H0.5V0.5Z" stroke="#F0F6FC" stroke-opacity="0.1"/>
<path d="M15.9175 17.1405L21.2237 22.2345C21.26 22.2694 21.3031 22.2971 21.3506 22.316C21.3981 22.3349 21.4489 22.3447 21.5003 22.3447C21.5517 22.3447 21.6026 22.3349 21.65 22.316C21.6975 22.2971 21.7406 22.2694 21.7769 22.2345L27.0831 17.1405C27.1379 17.0881 27.1752 17.0212 27.1903 16.9483C27.2055 16.8755 27.1977 16.8 27.1681 16.7314C27.1385 16.6628 27.0883 16.6042 27.0239 16.563C26.9596 16.5218 26.8839 16.4999 26.8066 16.5H16.1941C16.1167 16.4999 16.041 16.5218 15.9767 16.563C15.9123 16.6042 15.8621 16.6628 15.8325 16.7314C15.8029 16.8 15.7951 16.8755 15.8103 16.9483C15.8254 17.0212 15.8627 17.0881 15.9175 17.1405Z" fill="#CB2431"/>
</svg>
