<svg width="129" height="132" viewBox="0 0 129 132" fill="none" xmlns="http://www.w3.org/2000/svg">
<g filter="url(#filter0_d_1109_18150)">
<rect x="6" y="3" width="117" height="120" rx="28" fill="white" shape-rendering="crispEdges"/>
<g clip-path="url(#clip0_1109_18150)">
<g clip-path="url(#clip1_1109_18150)">
<path d="M64.9918 28.4922L96.6017 45.7422V80.2422L64.9918 97.4922L33.3818 80.2422V45.7422L64.9918 28.4922Z" fill="#673AB8"/>
<path d="M42.822 79.072C46.4172 83.5007 59.2578 79.8916 71.5022 71.0109C83.7467 62.1303 90.7582 51.3409 87.163 46.9123C83.5678 42.4837 70.7272 46.0928 58.4828 54.9734C46.2384 63.8541 39.2268 74.6434 42.822 79.072Z" stroke="white" stroke-width="0.962402"/>
<path d="M87.1622 79.0721C90.7575 74.6435 83.7459 63.8542 71.5014 54.9735C59.257 46.0928 46.4164 42.4838 42.8212 46.9124C39.226 51.341 46.2376 62.1304 58.482 71.011C70.7265 79.8917 83.567 83.5008 87.1622 79.0721Z" stroke="white" stroke-width="0.962402"/>
<path d="M64.9922 67.5742C67.6695 67.5742 69.8398 65.5228 69.8398 62.9922C69.8398 60.4616 67.6695 58.4102 64.9922 58.4102C62.3149 58.4102 60.1445 60.4616 60.1445 62.9922C60.1445 65.5228 62.3149 67.5742 64.9922 67.5742Z" fill="white"/>
</g>
</g>
</g>
<defs>
<filter id="filter0_d_1109_18150" x="0" y="0" width="129" height="132" filterUnits="userSpaceOnUse" color-interpolation-filters="sRGB">
<feFlood flood-opacity="0" result="BackgroundImageFix"/>
<feColorMatrix in="SourceAlpha" type="matrix" values="0 0 0 0 0 0 0 0 0 0 0 0 0 0 0 0 0 0 127 0" result="hardAlpha"/>
<feOffset dy="3"/>
<feGaussianBlur stdDeviation="3"/>
<feComposite in2="hardAlpha" operator="out"/>
<feColorMatrix type="matrix" values="0 0 0 0 0.00392157 0 0 0 0 0.0156863 0 0 0 0 0.0352941 0 0 0 1 0"/>
<feBlend mode="normal" in2="BackgroundImageFix" result="effect1_dropShadow_1109_18150"/>
<feBlend mode="normal" in="SourceGraphic" in2="effect1_dropShadow_1109_18150" result="shape"/>
</filter>
<clipPath id="clip0_1109_18150">
<rect width="73" height="69" fill="white" transform="translate(28.4922 28.4922)"/>
</clipPath>
<clipPath id="clip1_1109_18150">
<rect width="73" height="69" fill="white" transform="translate(28.4922 28.4922)"/>
</clipPath>
</defs>
</svg>
