<svg width="35" height="31" viewBox="0 0 35 31" fill="none" xmlns="http://www.w3.org/2000/svg">
<path d="M17.4997 31C18.5656 31.0003 19.595 30.656 20.3945 30.0317C21.194 29.4074 21.7087 28.546 21.8419 27.6094C21.8791 27.3439 21.6297 27.125 21.3279 27.125H13.6716C13.3697 27.125 13.1204 27.3439 13.1576 27.6094C13.2908 28.546 13.8055 29.4074 14.605 30.0317C15.4045 30.656 16.4339 31.0003 17.4997 31ZM6.56225 9.6875C6.56225 7.11822 7.71459 4.65416 9.76577 2.8374C11.8169 1.02064 14.5989 0 17.4997 0C20.4006 0 23.1825 1.02064 25.2337 2.8374C27.2849 4.65416 28.4372 7.11822 28.4372 9.6875V15.3973C28.4372 15.4942 28.4701 15.5872 28.5291 15.6666L32.2544 20.6169C32.5864 21.06 32.7767 21.5744 32.805 22.1056C32.8334 22.6368 32.6987 23.1648 32.4153 23.6336C32.1319 24.1024 31.7104 24.4944 31.1957 24.768C30.6809 25.0416 30.092 25.1866 29.4916 25.1875H5.50787C4.90627 25.1888 4.31559 25.0451 3.79912 24.7718C3.28265 24.4986 2.85984 24.106 2.57597 23.6362C2.29211 23.1664 2.15788 22.637 2.18766 22.1048C2.21745 21.5726 2.41013 21.0576 2.74506 20.615L6.47037 15.6666C6.52982 15.5866 6.56174 15.4931 6.56225 15.3973V9.6875ZM17.4997 2.90625C15.4692 2.90625 13.5218 3.6207 12.086 4.89243C10.6501 6.16416 9.8435 7.889 9.8435 9.6875V15.3973C9.8435 16.0677 9.62037 16.7206 9.20037 17.2767L5.47506 22.2289C5.47063 22.2346 5.46834 22.2414 5.4685 22.2483L5.47068 22.2599C5.47068 22.2638 5.47506 22.2677 5.47944 22.2716L5.49256 22.2793L5.50787 22.2812H29.4916L29.5069 22.2793L29.5201 22.2716L29.5288 22.2599L29.531 22.2464C29.5312 22.2395 29.5289 22.2327 29.5244 22.227L25.7991 17.2786C25.3795 16.7223 25.1557 16.0683 25.156 15.3992V9.6875C25.156 7.889 24.3494 6.16416 22.9135 4.89243C21.4777 3.6207 19.5303 2.90625 17.4997 2.90625Z" fill="#CB2431"/>
</svg>
