<svg width="65" height="63" viewBox="0 0 65 63" fill="none" xmlns="http://www.w3.org/2000/svg">
<g filter="url(#filter0_d_1114_18252)">
<rect x="6" y="3" width="53" height="51" rx="25.5" fill="white" shape-rendering="crispEdges"/>
<g clip-path="url(#clip0_1114_18252)">
<g clip-path="url(#clip1_1114_18252)">
<path d="M32.9997 31.993C34.6526 31.993 35.9925 30.6531 35.9925 29.0002C35.9925 27.3473 34.6526 26.0073 32.9997 26.0073C31.3468 26.0073 30.0068 27.3473 30.0068 29.0002C30.0068 30.6531 31.3468 31.993 32.9997 31.993Z" fill="#CB2431"/>
<path d="M32.9995 35.1315C41.8687 35.1315 49.0586 32.3862 49.0586 28.9998C49.0586 25.6134 41.8687 22.8682 32.9995 22.8682C24.1303 22.8682 16.9404 25.6134 16.9404 28.9998C16.9404 32.3862 24.1303 35.1315 32.9995 35.1315Z" stroke="#CB2431" stroke-width="1.45992"/>
<path d="M27.6895 32.0656C32.1241 39.7466 38.0965 44.6006 41.0292 42.9074C43.9619 41.2142 42.7444 33.6149 38.3098 25.934C33.8752 18.253 27.9028 13.399 24.9701 15.0922C22.0374 16.7854 23.2549 24.3847 27.6895 32.0656Z" stroke="#CB2431" stroke-width="1.45992"/>
<path d="M27.689 25.9341C23.2544 33.6151 22.0369 41.2143 24.9696 42.9075C27.9023 44.6008 33.8747 39.7467 38.3093 32.0658C42.7439 24.3848 43.9614 16.7856 41.0287 15.0924C38.096 13.3992 32.1236 18.2532 27.689 25.9341Z" stroke="#CB2431" stroke-width="1.45992"/>
</g>
</g>
</g>
<defs>
<filter id="filter0_d_1114_18252" x="0" y="0" width="65" height="63" filterUnits="userSpaceOnUse" color-interpolation-filters="sRGB">
<feFlood flood-opacity="0" result="BackgroundImageFix"/>
<feColorMatrix in="SourceAlpha" type="matrix" values="0 0 0 0 0 0 0 0 0 0 0 0 0 0 0 0 0 0 127 0" result="hardAlpha"/>
<feOffset dy="3"/>
<feGaussianBlur stdDeviation="3"/>
<feComposite in2="hardAlpha" operator="out"/>
<feColorMatrix type="matrix" values="0 0 0 0 0.00392157 0 0 0 0 0.0156863 0 0 0 0 0.0352941 0 0 0 1 0"/>
<feBlend mode="normal" in2="BackgroundImageFix" result="effect1_dropShadow_1114_18252"/>
<feBlend mode="normal" in="SourceGraphic" in2="effect1_dropShadow_1114_18252" result="shape"/>
</filter>
<clipPath id="clip0_1114_18252">
<rect width="33.5938" height="29.875" fill="white" transform="translate(16.2031 14.0625)"/>
</clipPath>
<clipPath id="clip1_1114_18252">
<rect width="33.5781" height="29.875" fill="white" transform="translate(16.2109 14.0625)"/>
</clipPath>
</defs>
</svg>
