<svg width="234" height="20" viewBox="0 0 234 20" fill="none" xmlns="http://www.w3.org/2000/svg">
<g clip-path="url(#clip0_1234_86)">
<path d="M22 3.17479C21.1778 3.54141 20.3043 3.78012 19.4099 3.88265C20.3537 3.32107 21.0601 2.43442 21.3967 1.38905C20.5082 1.91349 19.5372 2.2834 18.525 2.48302C17.9059 1.82348 17.1027 1.36527 16.2199 1.16785C15.337 0.970427 14.4152 1.04291 13.5741 1.3759C12.7329 1.70889 12.0113 2.287 11.5028 3.03522C10.9943 3.78344 10.7225 4.66721 10.7225 5.57187C10.7215 5.91866 10.762 6.26432 10.8431 6.60148C9.04843 6.51053 7.29277 6.044 5.68965 5.23205C4.08653 4.4201 2.67162 3.28079 1.53638 1.88777C0.958857 2.88148 0.782115 4.05805 1.04219 5.17758C1.30227 6.29711 1.97958 7.27528 2.93601 7.91263C2.21991 7.88992 1.51952 7.6969 0.89287 7.34956V7.40587C0.892853 8.44778 1.25332 9.45761 1.9131 10.264C2.57287 11.0704 3.49133 11.6237 4.51261 11.83C4.12481 11.9369 3.72438 11.991 3.32212 11.9909C3.03613 11.9884 2.75088 11.9615 2.46947 11.9104C2.75802 12.8071 3.31924 13.5913 4.07484 14.1536C4.83044 14.716 5.74274 15.0285 6.68446 15.0476C5.08433 16.3004 3.11013 16.9802 1.07788 16.9781C0.717662 16.9769 0.357796 16.9554 0 16.9137C2.06354 18.2394 4.46505 18.9431 6.91773 18.9408C15.219 18.9408 19.7558 12.0633 19.7558 6.10276C19.7558 5.90971 19.7477 5.70861 19.7397 5.51556C20.6263 4.87596 21.3918 4.08328 22 3.17479Z" fill="#959DA5"/>
</g>
<g clip-path="url(#clip1_1234_86)">
<path d="M55.007 1H38.994C38.7337 1.02367 38.4921 1.1456 38.3184 1.341C38.1447 1.5364 38.0519 1.79061 38.059 2.05195V17.9481C38.0519 18.2094 38.1447 18.4636 38.3184 18.659C38.4921 18.8544 38.7337 18.9763 38.994 19H47.5265V11.987H45.1888V9.2987H47.5265V7.31169C47.4501 6.44702 47.7119 5.5864 48.2568 4.91071C48.8017 4.23501 49.5873 3.79685 50.4486 3.68831H51.033C51.7363 3.66895 52.44 3.70805 53.1369 3.8052V6.25974H51.6174C50.4486 6.25974 50.3317 6.84416 50.3317 7.54545V9.2987H53.02L52.6694 11.987H50.3317V18.8831H54.8901C55.1515 18.8901 55.4057 18.7974 55.6011 18.6237C55.7965 18.45 55.9184 18.2084 55.9421 17.9481V1.93506C55.9257 1.69247 55.8219 1.46405 55.65 1.29212C55.478 1.12019 55.2496 1.01641 55.007 1Z" fill="#959DA5"/>
</g>
<g clip-path="url(#clip2_1234_86)">
<path d="M75.9404 1.99992C75.9403 2.398 75.8213 2.78697 75.5988 3.11705C75.3762 3.44712 75.0603 3.70327 74.6913 3.85273C74.3223 4.00218 73.9172 4.03812 73.5277 3.95596C73.1381 3.87381 72.782 3.67728 72.5048 3.39154C72.2277 3.1058 72.0421 2.74385 71.9718 2.35202C71.9016 1.96019 71.9498 1.55631 72.1105 1.19207C72.2711 0.827829 72.5367 0.519807 72.8734 0.307429C73.2101 0.0950517 73.6025 -0.0120184 74.0004 -7.60531e-05C74.5204 0.0155299 75.0138 0.233113 75.376 0.606508C75.7382 0.979903 75.9407 1.47972 75.9404 1.99992ZM76.0004 5.47992H72.0004V17.9999H76.0004V5.47992ZM82.3204 5.47992H78.3404V17.9999H82.2804V11.4299C82.2804 7.76992 87.0504 7.42992 87.0504 11.4299V17.9999H91.0004V10.0699C91.0004 3.89992 83.9404 4.12992 82.2804 7.15992L82.3204 5.47992Z" fill="#959DA5"/>
</g>
<g clip-path="url(#clip3_1234_86)">
<path d="M129.306 4.50589C129.181 4.02674 128.933 3.58866 128.587 3.23557C128.24 2.88248 127.806 2.62678 127.329 2.49412C125.564 2.00001 118.494 2.00001 118.494 2.00001C115.546 1.96457 112.598 2.12177 109.67 2.47059C109.193 2.61295 108.76 2.87453 108.413 3.23064C108.065 3.58675 107.813 4.02565 107.682 4.50589C107.366 6.31994 107.212 8.15862 107.223 10C107.211 11.8414 107.365 13.6802 107.682 15.4941C107.811 15.9731 108.061 16.4104 108.41 16.7631C108.759 17.1158 109.193 17.3718 109.67 17.5059C111.459 18 118.494 18 118.494 18C121.446 18.0355 124.397 17.8783 127.329 17.5294C127.806 17.3968 128.24 17.1411 128.587 16.788C128.933 16.4349 129.181 15.9968 129.306 15.5177C129.63 13.7045 129.788 11.8654 129.776 10.0235C129.801 8.17334 129.643 6.32524 129.306 4.50589ZM116.247 13.4235V6.57648L122.129 10L116.247 13.4235Z" fill="#959DA5"/>
</g>
<path d="M154.678 4.5355H155.964V8.39275H154.677L154.678 4.5355ZM158.214 4.5355H159.5V8.39275H158.214V4.5355ZM150.5 1L147.285 4.2145V15.7855H151.142V19L154.357 15.7855H156.928L162.714 10V1H150.5ZM161.428 9.35725L158.857 11.9283H156.285L154.035 14.1782V11.9283H151.142V2.2855H161.428V9.35725Z" fill="#959DA5"/>
<g clip-path="url(#clip4_1234_86)">
<path d="M189.394 1.015C190.376 1 191.351 1.0075 192.326 1C192.386 2.1475 192.799 3.3175 193.639 4.1275C194.479 4.96 195.664 5.3425 196.819 5.47V8.4925C195.739 8.455 194.651 8.23 193.669 7.765C193.241 7.57 192.844 7.3225 192.454 7.0675C192.446 9.2575 192.461 11.4475 192.439 13.63C192.379 14.68 192.034 15.7225 191.426 16.585C190.444 18.025 188.741 18.9625 186.994 18.9925C185.921 19.0525 184.849 18.76 183.934 18.22C182.419 17.3275 181.354 15.6925 181.196 13.9375C181.181 13.5625 181.174 13.1875 181.189 12.82C181.324 11.395 182.029 10.03 183.124 9.1C184.369 8.02 186.109 7.5025 187.736 7.81C187.751 8.92 187.706 10.03 187.706 11.14C186.964 10.9 186.094 10.9675 185.441 11.4175C184.969 11.725 184.609 12.1975 184.421 12.73C184.264 13.1125 184.309 13.5325 184.316 13.9375C184.496 15.1675 185.681 16.2025 186.941 16.09C187.781 16.0825 188.584 15.595 189.019 14.8825C189.161 14.635 189.319 14.38 189.326 14.0875C189.401 12.745 189.371 11.41 189.379 10.0675C189.386 7.045 189.371 4.03 189.394 1.015Z" fill="#959DA5"/>
</g>
<g clip-path="url(#clip5_1234_86)">
<path d="M224 0C218.475 0 214 4.475 214 10C214 14.425 216.862 18.1625 220.837 19.4875C221.337 19.575 221.525 19.275 221.525 19.0125C221.525 18.775 221.513 17.9875 221.513 17.15C219 17.6125 218.35 16.5375 218.15 15.975C218.037 15.6875 217.55 14.8 217.125 14.5625C216.775 14.375 216.275 13.9125 217.112 13.9C217.9 13.8875 218.463 14.625 218.65 14.925C219.55 16.4375 220.988 16.0125 221.562 15.75C221.65 15.1 221.912 14.6625 222.2 14.4125C219.975 14.1625 217.65 13.3 217.65 9.475C217.65 8.3875 218.037 7.4875 218.675 6.7875C218.575 6.5375 218.225 5.5125 218.775 4.1375C218.775 4.1375 219.613 3.875 221.525 5.1625C222.325 4.9375 223.175 4.825 224.025 4.825C224.875 4.825 225.725 4.9375 226.525 5.1625C228.438 3.8625 229.275 4.1375 229.275 4.1375C229.825 5.5125 229.475 6.5375 229.375 6.7875C230.013 7.4875 230.4 8.375 230.4 9.475C230.4 13.3125 228.062 14.1625 225.838 14.4125C226.2 14.725 226.513 15.325 226.513 16.2625C226.513 17.6 226.5 18.675 226.5 19.0125C226.5 19.275 226.688 19.5875 227.188 19.4875C229.173 18.8173 230.898 17.5415 232.12 15.8395C233.342 14.1376 233.999 12.0953 234 10C234 4.475 229.525 0 224 0Z" fill="#959DA5"/>
</g>
<defs>
<clipPath id="clip0_1234_86">
<rect width="22" height="17.8815" fill="white" transform="translate(0 1.05908)"/>
</clipPath>
<clipPath id="clip1_1234_86">
<rect width="17.8831" height="18" fill="white" transform="translate(38.0586 1)"/>
</clipPath>
<clipPath id="clip2_1234_86">
<rect width="19" height="18" fill="white" transform="translate(72)"/>
</clipPath>
<clipPath id="clip3_1234_86">
<rect width="22.5529" height="16" fill="white" transform="translate(107.224 2)"/>
</clipPath>
<clipPath id="clip4_1234_86">
<rect width="18" height="18" fill="white" transform="translate(180 1)"/>
</clipPath>
<clipPath id="clip5_1234_86">
<rect width="20" height="20" fill="white" transform="translate(214)"/>
</clipPath>
</defs>
</svg>
