<svg width="16" height="16" viewBox="0 0 16 16" fill="none" xmlns="http://www.w3.org/2000/svg">
<path d="M0 11.25C0 10.284 0.784 9.5 1.75 9.5H14.25C15.216 9.5 16 10.284 16 11.25V14.25C16 14.7141 15.8156 15.1592 15.4874 15.4874C15.1592 15.8156 14.7141 16 14.25 16H1.75C1.28587 16 0.840752 15.8156 0.512563 15.4874C0.184374 15.1592 0 14.7141 0 14.25L0 11.25ZM2 1.75C2 0.784 2.784 0 3.75 0H12.25C13.216 0 14 0.784 14 1.75V6.75C14 7.21413 13.8156 7.65925 13.4874 7.98744C13.1592 8.31563 12.7141 8.5 12.25 8.5H3.75C3.28587 8.5 2.84075 8.31563 2.51256 7.98744C2.18437 7.65925 2 7.21413 2 6.75V1.75ZM3.75 1.5C3.6837 1.5 3.62011 1.52634 3.57322 1.57322C3.52634 1.62011 3.5 1.6837 3.5 1.75V6.75C3.5 6.888 3.612 7 3.75 7H12.25C12.3163 7 12.3799 6.97366 12.4268 6.92678C12.4737 6.87989 12.5 6.8163 12.5 6.75V1.75C12.5 1.6837 12.4737 1.62011 12.4268 1.57322C12.3799 1.52634 12.3163 1.5 12.25 1.5H3.75ZM1.75 11C1.6837 11 1.62011 11.0263 1.57322 11.0732C1.52634 11.1201 1.5 11.1837 1.5 11.25V14.25C1.5 14.388 1.612 14.5 1.75 14.5H14.25C14.3163 14.5 14.3799 14.4737 14.4268 14.4268C14.4737 14.3799 14.5 14.3163 14.5 14.25V11.25C14.5 11.1837 14.4737 11.1201 14.4268 11.0732C14.3799 11.0263 14.3163 11 14.25 11H1.75Z" fill="#8B949E"/>
<path d="M7 12.75C7 12.5511 7.07902 12.3603 7.21967 12.2197C7.36032 12.079 7.55109 12 7.75 12H12.25C12.4489 12 12.6397 12.079 12.7803 12.2197C12.921 12.3603 13 12.5511 13 12.75C13 12.9489 12.921 13.1397 12.7803 13.2803C12.6397 13.421 12.4489 13.5 12.25 13.5H7.75C7.55109 13.5 7.36032 13.421 7.21967 13.2803C7.07902 13.1397 7 12.9489 7 12.75ZM3 12.75C3 12.5511 3.07902 12.3603 3.21967 12.2197C3.36032 12.079 3.55109 12 3.75 12H4.25C4.44891 12 4.63968 12.079 4.78033 12.2197C4.92098 12.3603 5 12.5511 5 12.75C5 12.9489 4.92098 13.1397 4.78033 13.2803C4.63968 13.421 4.44891 13.5 4.25 13.5H3.75C3.55109 13.5 3.36032 13.421 3.21967 13.2803C3.07902 13.1397 3 12.9489 3 12.75Z" fill="#8B949E"/>
</svg>
