<svg width="86" height="37" viewBox="0 0 86 37" fill="none" xmlns="http://www.w3.org/2000/svg">
<mask id="path-1-inside-1_1255_309" fill="white">
<path d="M0 6C0 2.68629 2.68629 0 6 0H43V37H6C2.68629 37 0 34.3137 0 31V6Z"/>
</mask>
<path d="M0 6C0 2.68629 2.68629 0 6 0H43V37H6C2.68629 37 0 34.3137 0 31V6Z" fill="#21262D"/>
<path d="M-1 6C-1 2.13401 2.13401 -1 6 -1H43V1H6C3.23858 1 1 3.23858 1 6H-1ZM43 38H6C2.13401 38 -1 34.866 -1 31H1C1 33.7614 3.23858 36 6 36H43V38ZM6 38C2.13401 38 -1 34.866 -1 31V6C-1 2.13401 2.13401 -1 6 -1V1C3.23858 1 1 3.23858 1 6V31C1 33.7614 3.23858 36 6 36V38ZM43 0V37V0Z" fill="#F0F6FC" fill-opacity="0.1" mask="url(#path-1-inside-1_1255_309)"/>
<path d="M23.5 6C23.9324 6 24.3471 6.16491 24.6529 6.45844C24.9587 6.75198 25.1304 7.1501 25.1304 7.56522V16.4348H34.3696C34.802 16.4348 35.2167 16.5997 35.5225 16.8932C35.8282 17.1868 36 17.5849 36 18C36 18.4151 35.8282 18.8132 35.5225 19.1068C35.2167 19.4003 34.802 19.5652 34.3696 19.5652H25.1304V28.4348C25.1304 28.8499 24.9587 29.248 24.6529 29.5416C24.3471 29.8351 23.9324 30 23.5 30C23.0676 30 22.6529 29.8351 22.3471 29.5416C22.0413 29.248 21.8696 28.8499 21.8696 28.4348V19.5652H12.6304C12.198 19.5652 11.7833 19.4003 11.4775 19.1068C11.1718 18.8132 11 18.4151 11 18C11 17.5849 11.1718 17.1868 11.4775 16.8932C11.7833 16.5997 12.198 16.4348 12.6304 16.4348H21.8696V7.56522C21.8696 7.1501 22.0413 6.75198 22.3471 6.45844C22.6529 6.16491 23.0676 6 23.5 6Z" fill="#CB2431"/>
<path d="M43 0H80C83.3137 0 86 2.68629 86 6V31C86 34.3137 83.3137 37 80 37H43V0Z" fill="#21262D"/>
<path d="M43.5 0.5H80C83.0376 0.5 85.5 2.96243 85.5 6V31C85.5 34.0376 83.0376 36.5 80 36.5H43.5V0.5Z" stroke="#F0F6FC" stroke-opacity="0.1"/>
<path d="M58.9175 17.1405L64.2237 22.2345C64.26 22.2694 64.3031 22.2971 64.3506 22.316C64.3981 22.3349 64.4489 22.3447 64.5003 22.3447C64.5517 22.3447 64.6026 22.3349 64.65 22.316C64.6975 22.2971 64.7406 22.2694 64.7769 22.2345L70.0831 17.1405C70.1379 17.0881 70.1752 17.0212 70.1903 16.9483C70.2055 16.8755 70.1977 16.8 70.1681 16.7314C70.1385 16.6628 70.0883 16.6042 70.0239 16.563C69.9596 16.5218 69.8839 16.4999 69.8066 16.5H59.1941C59.1167 16.4999 59.041 16.5218 58.9767 16.563C58.9123 16.6042 58.8621 16.6628 58.8325 16.7314C58.8029 16.8 58.7951 16.8755 58.8103 16.9483C58.8254 17.0212 58.8627 17.0881 58.9175 17.1405Z" fill="#CB2431"/>
</svg>
