<svg width="43" height="37" viewBox="0 0 43 37" fill="none" xmlns="http://www.w3.org/2000/svg">
<mask id="path-1-inside-1_1159_31" fill="white">
<path d="M0 6C0 2.68629 2.68629 0 6 0H43V37H6C2.68629 37 0 34.3137 0 31V6Z"/>
</mask>
<path d="M0 6C0 2.68629 2.68629 0 6 0H43V37H6C2.68629 37 0 34.3137 0 31V6Z" fill="#21262D"/>
<path d="M-1 6C-1 2.13401 2.13401 -1 6 -1H43V1H6C3.23858 1 1 3.23858 1 6H-1ZM43 38H6C2.13401 38 -1 34.866 -1 31H1C1 33.7614 3.23858 36 6 36H43V38ZM6 38C2.13401 38 -1 34.866 -1 31V6C-1 2.13401 2.13401 -1 6 -1V1C3.23858 1 1 3.23858 1 6V31C1 33.7614 3.23858 36 6 36V38ZM43 0V37V0Z" fill="#F0F6FC" fill-opacity="0.1" mask="url(#path-1-inside-1_1159_31)"/>
<path d="M23.5 6C23.9324 6 24.3471 6.16491 24.6529 6.45844C24.9587 6.75198 25.1304 7.1501 25.1304 7.56522V16.4348H34.3696C34.802 16.4348 35.2167 16.5997 35.5225 16.8932C35.8282 17.1868 36 17.5849 36 18C36 18.4151 35.8282 18.8132 35.5225 19.1068C35.2167 19.4003 34.802 19.5652 34.3696 19.5652H25.1304V28.4348C25.1304 28.8499 24.9587 29.248 24.6529 29.5416C24.3471 29.8351 23.9324 30 23.5 30C23.0676 30 22.6529 29.8351 22.3471 29.5416C22.0413 29.248 21.8696 28.8499 21.8696 28.4348V19.5652H12.6304C12.198 19.5652 11.7833 19.4003 11.4775 19.1068C11.1718 18.8132 11 18.4151 11 18C11 17.5849 11.1718 17.1868 11.4775 16.8932C11.7833 16.5997 12.198 16.4348 12.6304 16.4348H21.8696V7.56522C21.8696 7.1501 22.0413 6.75198 22.3471 6.45844C22.6529 6.16491 23.0676 6 23.5 6Z" fill="#CB2431"/>
</svg>
