<svg width="38" height="38" viewBox="0 0 38 38" fill="none" xmlns="http://www.w3.org/2000/svg">
<rect x="0.5" y="0.5" width="37" height="37" rx="18.5" fill="#0D1117"/>
<rect x="0.5" y="0.5" width="37" height="37" rx="18.5" stroke="#30363D"/>
<path d="M19 11C21.1217 11 23.1566 11.8429 24.6569 13.3431C26.1571 14.8434 27 16.8783 27 19C27 21.1217 26.1571 23.1566 24.6569 24.6569C23.1566 26.1571 21.1217 27 19 27C16.8783 27 14.8434 26.1571 13.3431 24.6569C11.8429 23.1566 11 21.1217 11 19C11 16.8783 11.8429 14.8434 13.3431 13.3431C14.8434 11.8429 16.8783 11 19 11ZM12.5 19C12.5 20.7239 13.1848 22.3772 14.4038 23.5962C15.6228 24.8152 17.2761 25.5 19 25.5C20.7239 25.5 22.3772 24.8152 23.5962 23.5962C24.8152 22.3772 25.5 20.7239 25.5 19C25.5 17.2761 24.8152 15.6228 23.5962 14.4038C22.3772 13.1848 20.7239 12.5 19 12.5C17.2761 12.5 15.6228 13.1848 14.4038 14.4038C13.1848 15.6228 12.5 17.2761 12.5 19ZM16.32 20.636C16.4813 20.523 16.6806 20.4781 16.8749 20.5108C17.0691 20.5436 17.2426 20.6514 17.358 20.811L17.365 20.82C17.468 20.938 17.585 21.042 17.715 21.13C17.979 21.308 18.398 21.5 19 21.5C19.602 21.5 20.02 21.308 20.285 21.129C20.415 21.041 20.532 20.937 20.635 20.819L20.642 20.811C20.7574 20.649 20.9324 20.5394 21.1285 20.5064C21.3247 20.4734 21.526 20.5196 21.688 20.635C21.85 20.7504 21.9596 20.9254 21.9926 21.1215C22.0256 21.3177 21.9794 21.519 21.864 21.681L21.842 21.666C21.862 21.679 21.863 21.681 21.863 21.681V21.682L21.862 21.684L21.86 21.687L21.855 21.694L21.841 21.713C21.7846 21.7881 21.7231 21.8593 21.657 21.926C21.497 22.092 21.319 22.242 21.127 22.371C20.497 22.789 19.757 23.009 19 23C18.054 23 17.348 22.692 16.874 22.37C16.6049 22.1871 16.364 21.9657 16.159 21.713L16.145 21.693L16.14 21.687L16.138 21.684V21.682L16.75 21.25L16.136 21.68C16.022 21.5172 15.9772 21.3159 16.0115 21.1201C16.0458 20.9244 16.1564 20.7503 16.319 20.636H16.32ZM23 18C23 18.2652 22.8946 18.5196 22.7071 18.7071C22.5196 18.8946 22.2652 19 22 19C21.7348 19 21.4804 18.8946 21.2929 18.7071C21.1054 18.5196 21 18.2652 21 18C21 17.7348 21.1054 17.4804 21.2929 17.2929C21.4804 17.1054 21.7348 17 22 17C22.2652 17 22.5196 17.1054 22.7071 17.2929C22.8946 17.4804 23 17.7348 23 18ZM16 19C15.7348 19 15.4804 18.8946 15.2929 18.7071C15.1054 18.5196 15 18.2652 15 18C15 17.7348 15.1054 17.4804 15.2929 17.2929C15.4804 17.1054 15.7348 17 16 17C16.2652 17 16.5196 17.1054 16.7071 17.2929C16.8946 17.4804 17 17.7348 17 18C17 18.2652 16.8946 18.5196 16.7071 18.7071C16.5196 18.8946 16.2652 19 16 19ZM21.25 21.25L21.842 21.666C21.6452 21.5266 21.4478 21.3879 21.25 21.25Z" fill="#8B949E"/>
</svg>
