<svg width="16" height="16" viewBox="0 0 16 16" fill="none" xmlns="http://www.w3.org/2000/svg">
<path d="M7.77518 3.27518L9.02518 2.02518C9.3502 1.70016 9.73606 1.44234 10.1607 1.26644C10.5854 1.09053 11.0405 1 11.5002 1C11.9598 1 12.415 1.09053 12.8396 1.26644C13.2643 1.44234 13.6502 1.70016 13.9752 2.02518C14.3002 2.3502 14.558 2.73606 14.7339 3.16072C14.9098 3.58538 15.0004 4.04053 15.0004 4.50018C15.0004 4.95983 14.9098 5.41498 14.7339 5.83964C14.558 6.2643 14.3002 6.65016 13.9752 6.97518L11.4752 9.47518C11.1502 9.80022 10.7643 10.0581 10.3397 10.234C9.91499 10.4099 9.45984 10.5004 9.00018 10.5004C8.54052 10.5004 8.08537 10.4099 7.6607 10.234C7.23604 10.0581 6.85019 9.80022 6.52518 9.47518C6.39277 9.33292 6.32067 9.14487 6.32402 8.95055C6.32738 8.75623 6.40594 8.57078 6.54318 8.43318C6.68078 8.29594 6.86623 8.21738 7.06055 8.21402C7.25486 8.21067 7.44292 8.28277 7.58518 8.41518C7.77079 8.60137 7.99132 8.7491 8.23414 8.8499C8.47695 8.9507 8.73727 9.00258 9.00018 9.00258C9.26308 9.00258 9.5234 8.9507 9.76622 8.8499C10.009 8.7491 10.2296 8.60137 10.4152 8.41518L12.9152 5.91518C13.2722 5.53623 13.4676 5.0331 13.4598 4.51252C13.452 3.99194 13.2418 3.49485 12.8737 3.12671C12.5055 2.75856 12.0084 2.54831 11.4878 2.54056C10.9673 2.5328 10.4641 2.72816 10.0852 3.08518L8.83518 4.33518C8.69292 4.46759 8.50486 4.53969 8.31055 4.53633C8.11623 4.53298 7.93078 4.45442 7.79318 4.31718C7.65594 4.17958 7.57738 3.99413 7.57402 3.79981C7.57067 3.60549 7.64277 3.41744 7.77518 3.27518ZM3.08518 12.9152C3.27079 13.1014 3.49132 13.2491 3.73414 13.3499C3.97695 13.4507 4.23727 13.5026 4.50018 13.5026C4.76308 13.5026 5.0234 13.4507 5.26622 13.3499C5.50903 13.2491 5.72957 13.1014 5.91518 12.9152L7.16518 11.6652C7.30744 11.5328 7.49549 11.4607 7.68981 11.464C7.88413 11.4674 8.06957 11.5459 8.20718 11.6832C8.34442 11.8208 8.42298 12.0062 8.42633 12.2005C8.42969 12.3949 8.35759 12.5829 8.22518 12.7252L6.97518 13.9752C6.65016 14.3002 6.2643 14.558 5.83964 14.7339C5.41498 14.9098 4.95983 15.0004 4.50018 15.0004C3.57187 15.0004 2.68159 14.6316 2.02518 13.9752C1.36877 13.3188 1 12.4285 1 11.5002C1 10.5719 1.36877 9.68159 2.02518 9.02518L4.52518 6.52518C4.85019 6.20014 5.23604 5.9423 5.6607 5.76638C6.08537 5.59047 6.54052 5.49993 7.00018 5.49993C7.45984 5.49993 7.91499 5.59047 8.33965 5.76638C8.76432 5.9423 9.15017 6.20014 9.47518 6.52518C9.60759 6.66744 9.67969 6.85549 9.67633 7.04981C9.67298 7.24413 9.59442 7.42958 9.45718 7.56718C9.31957 7.70442 9.13413 7.78298 8.93981 7.78633C8.74549 7.78969 8.55744 7.71759 8.41518 7.58518C8.22957 7.39899 8.00903 7.25126 7.76622 7.15046C7.5234 7.04966 7.26308 6.99777 7.00018 6.99777C6.73727 6.99777 6.47695 7.04966 6.23414 7.15046C5.99132 7.25126 5.77079 7.39899 5.58518 7.58518L3.08518 10.0852C2.89899 10.2708 2.75126 10.4913 2.65046 10.7341C2.54966 10.977 2.49777 11.2373 2.49777 11.5002C2.49777 11.7631 2.54966 12.0234 2.65046 12.2662C2.75126 12.509 2.89899 12.7296 3.08518 12.9152Z" fill="#8B949E"/>
</svg>
