<svg width="43" height="12" viewBox="0 0 43 12" fill="none" xmlns="http://www.w3.org/2000/svg">
<path d="M38.1885 0.389747L38.8852 0.899747C39 0.983747 39.1335 1.03925 39.2737 1.061L40.1272 1.19225C40.5496 1.25717 40.9402 1.45507 41.2423 1.7572C41.5444 2.05933 41.7423 2.44993 41.8072 2.87225L41.9377 3.7265C41.9595 3.86675 42.015 4.00025 42.099 4.115L42.609 4.811C42.8622 5.15563 42.9987 5.5721 42.9987 5.99975C42.9987 6.42739 42.8622 6.84387 42.609 7.1885L42.099 7.8845C42.0146 7.99907 41.9593 8.13237 41.9377 8.273L41.8065 9.1265C41.7417 9.54905 41.5437 9.9399 41.2414 10.2422C40.9392 10.5445 40.5483 10.7424 40.1257 10.8072L39.2722 10.9385C39.1316 10.96 38.9983 11.0153 38.8837 11.0997L38.1877 11.6097C37.8431 11.8629 37.4266 11.9995 36.999 11.9995C36.5714 11.9995 36.1549 11.8629 35.8102 11.6097L35.1142 11.0997C34.9997 11.0154 34.8664 10.9601 34.7257 10.9385L33.8722 10.8072C33.4499 10.7423 33.0593 10.5444 32.7572 10.2423C32.4551 9.94016 32.2572 9.54956 32.1922 9.12725L32.061 8.27375C32.0395 8.13309 31.9842 7.99976 31.8997 7.88525L31.3897 7.18925C31.1365 6.84462 31 6.42814 31 6.0005C31 5.57285 31.1365 5.15638 31.3897 4.81175L31.8997 4.11575C31.9837 4.001 32.0392 3.8675 32.061 3.72725L32.1922 2.87225C32.2572 2.44993 32.4551 2.05933 32.7572 1.7572C33.0593 1.45507 33.4499 1.25717 33.8722 1.19225L34.7265 1.061C34.8667 1.03925 35.0002 0.983747 35.115 0.899747L35.811 0.389747C36.1556 0.136546 36.5721 0 36.9997 0C37.4274 0 37.8439 0.136546 38.1885 0.389747ZM36.477 1.29575L35.7817 1.80575C35.5208 1.9978 35.2171 2.12365 34.8967 2.1725L34.044 2.303C33.8579 2.33149 33.6857 2.41866 33.5526 2.5518C33.4194 2.68495 33.3322 2.85712 33.3037 3.04325L33.1732 3.89525C33.1242 4.21552 32.9984 4.51916 32.8065 4.78025L32.2965 5.47625C32.1855 5.62793 32.1256 5.81102 32.1256 5.999C32.1256 6.18697 32.1855 6.37007 32.2965 6.52175L32.8065 7.217C32.9985 7.478 33.1245 7.78175 33.1732 8.102L33.3037 8.95475C33.3622 9.3365 33.6622 9.6365 34.044 9.695L34.896 9.8255C35.2163 9.87434 35.52 10.0002 35.781 10.1922L36.477 10.7022C36.7875 10.931 37.2112 10.931 37.5225 10.7022L38.2177 10.1922C38.4787 10.0002 38.7824 9.87434 39.1027 9.8255L39.9555 9.695C40.1416 9.66639 40.3137 9.57919 40.4468 9.44606C40.5799 9.31294 40.6671 9.14083 40.6957 8.95475L40.8262 8.10275C40.8751 7.78242 41.0009 7.47873 41.193 7.21775L41.703 6.52175C41.8145 6.37025 41.8746 6.18709 41.8746 5.999C41.8746 5.81091 41.8145 5.62774 41.703 5.47625L41.193 4.781C41.0014 4.51978 40.8756 4.2162 40.8262 3.896L40.6957 3.04325C40.6673 2.85712 40.5801 2.68495 40.4469 2.5518C40.3138 2.41866 40.1416 2.33149 39.9555 2.303L39.1035 2.1725C38.7832 2.12345 38.4796 1.99762 38.2185 1.80575L37.5225 1.29575C37.371 1.18427 37.1878 1.12414 36.9997 1.12414C36.8117 1.12414 36.6285 1.18427 36.477 1.29575ZM39.4597 5.08475L36.6472 7.89725C36.5418 8.00258 36.3988 8.06175 36.2497 8.06175C36.1007 8.06175 35.9577 8.00258 35.8522 7.89725L34.5397 6.58475C34.4404 6.47805 34.3864 6.33701 34.3889 6.19127C34.3914 6.04554 34.4503 5.90645 34.5532 5.80325C34.6564 5.70031 34.7955 5.6414 34.9413 5.63888C35.087 5.63636 35.2281 5.69044 35.3347 5.78975L36.2497 6.70475L38.6647 4.28975C38.7714 4.19044 38.9125 4.13636 39.0582 4.13888C39.204 4.1414 39.343 4.20031 39.4462 4.30325C39.5492 4.40645 39.6081 4.54554 39.6106 4.69127C39.6131 4.83701 39.5591 4.97805 39.4597 5.08475Z" fill="#6E7681"/>
</svg>
