<svg width="12" height="12" viewBox="0 0 12 12" fill="none" xmlns="http://www.w3.org/2000/svg">
<path d="M7.18925 0.389764L7.88607 0.899785C8.00083 0.983789 8.13435 1.03929 8.27461 1.06104L9.1282 1.1923C9.55056 1.25722 9.9412 1.45514 10.2434 1.75728C10.5455 2.05942 10.7435 2.45004 10.8084 2.87237L10.9389 3.72665C10.9606 3.86691 11.0161 4.00042 11.1002 4.11517L11.6102 4.8112C11.8634 5.15585 12 5.57234 12 6C12 6.42766 11.8634 6.84415 11.6102 7.1888L11.1002 7.88483C11.0158 7.99941 10.9605 8.13271 10.9389 8.27335L10.8076 9.12688C10.7428 9.54945 10.5448 9.94032 10.2425 10.2426C9.9402 10.5449 9.5493 10.7429 9.1267 10.8077L8.27311 10.939C8.13244 10.9604 7.9991 11.0158 7.88457 11.1002L7.1885 11.6102C6.84383 11.8634 6.42732 12 5.99963 12C5.57194 12 5.15542 11.8634 4.81075 11.6102L4.11468 11.1002C4.00009 11.0159 3.86678 10.9605 3.72614 10.939L2.87255 10.8077C2.45019 10.7428 2.05955 10.5449 1.75739 10.2427C1.45523 9.94058 1.2573 9.54996 1.19237 9.12763L1.06111 8.2741C1.03965 8.13343 0.984303 8.0001 0.899841 7.88558L0.389788 7.18955C0.136561 6.84491 0 6.42841 0 6.00075C0 5.57309 0.136561 5.1566 0.389788 4.81195L0.899841 4.11592C0.98385 4.00117 1.03936 3.86766 1.06111 3.7274L1.19237 2.87237C1.2573 2.45004 1.45523 2.05942 1.75739 1.75728C2.05955 1.45514 2.45019 1.25722 2.87255 1.1923L3.72689 1.06104C3.86715 1.03929 4.00067 0.983789 4.11543 0.899785L4.8115 0.389764C5.15617 0.136552 5.57269 0 6.00038 0C6.42807 0 6.84458 0.136552 7.18925 0.389764ZM5.47757 1.2958L4.78225 1.80582C4.52124 1.99788 4.21752 2.12374 3.89716 2.17259L3.04432 2.30309C2.85817 2.33159 2.68598 2.41876 2.55282 2.55191C2.41966 2.68506 2.33249 2.85724 2.30399 3.04338L2.17347 3.89541C2.12442 4.2157 1.99857 4.51935 1.80669 4.78045L1.29663 5.47648C1.18559 5.62816 1.12573 5.81127 1.12573 5.99925C1.12573 6.18723 1.18559 6.37034 1.29663 6.52202L1.80669 7.2173C1.99871 7.47831 2.12472 7.78208 2.17347 8.10234L2.30399 8.95512C2.36249 9.33689 2.66253 9.6369 3.04432 9.69541L3.8964 9.82591C4.21677 9.87476 4.52049 10.0006 4.7815 10.1927L5.47757 10.7027C5.7881 10.9315 6.2119 10.9315 6.52318 10.7027L7.2185 10.1927C7.47951 10.0006 7.78323 9.87476 8.10359 9.82591L8.95643 9.69541C9.14253 9.6668 9.31466 9.57959 9.4478 9.44646C9.58094 9.31333 9.66815 9.14121 9.69676 8.95512L9.82728 8.10309C9.87613 7.78275 10.002 7.47905 10.1941 7.21805L10.7041 6.52202C10.8156 6.37052 10.8757 6.18735 10.8757 5.99925C10.8757 5.81115 10.8156 5.62798 10.7041 5.47648L10.1941 4.7812C10.0024 4.51997 9.87659 4.21637 9.82728 3.89616L9.69676 3.04338C9.66826 2.85724 9.58109 2.68506 9.44793 2.55191C9.31477 2.41876 9.14258 2.33159 8.95643 2.30309L8.10434 2.17259C7.78404 2.12354 7.48037 1.9977 7.21925 1.80582L6.52318 1.2958C6.37167 1.18432 6.18849 1.12419 6.00038 1.12419C5.81226 1.12419 5.62908 1.18432 5.47757 1.2958ZM8.46063 5.08496L5.64784 7.89758C5.54236 8.00292 5.39937 8.06209 5.2503 8.06209C5.10122 8.06209 4.95824 8.00292 4.85276 7.89758L3.54012 6.58502C3.4408 6.47832 3.38672 6.33728 3.38924 6.19154C3.39175 6.04579 3.45068 5.9067 3.55362 5.80349C3.65683 5.70056 3.79593 5.64164 3.94169 5.63912C4.08744 5.6366 4.22849 5.69068 4.3352 5.78999L5.2503 6.70503L7.66555 4.28993C7.77226 4.19062 7.91331 4.13654 8.05906 4.13906C8.20481 4.14157 8.34392 4.20049 8.44713 4.30343C8.55007 4.40664 8.609 4.54573 8.61151 4.69147C8.61403 4.83722 8.55995 4.97826 8.46063 5.08496Z" fill="#6E7681"/>
</svg>
