<svg width="12" height="12" viewBox="0 0 12 12" fill="none" xmlns="http://www.w3.org/2000/svg">
<path d="M7.1885 0.389747L7.88525 0.899747C8 0.983747 8.1335 1.03925 8.27375 1.061L9.12725 1.19225C9.54956 1.25717 9.94016 1.45507 10.2423 1.7572C10.5444 2.05933 10.7423 2.44993 10.8072 2.87225L10.9377 3.7265C10.9595 3.86675 11.015 4.00025 11.099 4.115L11.609 4.811C11.8622 5.15563 11.9987 5.5721 11.9987 5.99975C11.9987 6.42739 11.8622 6.84387 11.609 7.1885L11.099 7.8845C11.0146 7.99907 10.9593 8.13237 10.9377 8.273L10.8065 9.1265C10.7417 9.54905 10.5437 9.9399 10.2414 10.2422C9.93915 10.5445 9.5483 10.7424 9.12575 10.8072L8.27225 10.9385C8.13159 10.96 7.99826 11.0153 7.88375 11.0997L7.18775 11.6097C6.84312 11.8629 6.42664 11.9995 5.999 11.9995C5.57135 11.9995 5.15488 11.8629 4.81025 11.6097L4.11425 11.0997C3.99968 11.0154 3.86637 10.9601 3.72575 10.9385L2.87225 10.8072C2.44993 10.7423 2.05933 10.5444 1.7572 10.2423C1.45507 9.94016 1.25717 9.54956 1.19225 9.12725L1.061 8.27375C1.03954 8.13309 0.9842 7.99976 0.899747 7.88525L0.389747 7.18925C0.136546 6.84462 0 6.42814 0 6.0005C0 5.57285 0.136546 5.15638 0.389747 4.81175L0.899747 4.11575C0.983747 4.001 1.03925 3.8675 1.061 3.72725L1.19225 2.87225C1.25717 2.44993 1.45507 2.05933 1.7572 1.7572C2.05933 1.45507 2.44993 1.25717 2.87225 1.19225L3.7265 1.061C3.86675 1.03925 4.00025 0.983747 4.115 0.899747L4.811 0.389747C5.15563 0.136546 5.5721 0 5.99975 0C6.42739 0 6.84387 0.136546 7.1885 0.389747ZM5.477 1.29575L4.78175 1.80575C4.52076 1.9978 4.21707 2.12365 3.89675 2.1725L3.044 2.303C2.85787 2.33149 2.6857 2.41866 2.55255 2.5518C2.41941 2.68495 2.33224 2.85712 2.30375 3.04325L2.17325 3.89525C2.1242 4.21552 1.99837 4.51916 1.8065 4.78025L1.2965 5.47625C1.18546 5.62793 1.12561 5.81102 1.12561 5.999C1.12561 6.18697 1.18546 6.37007 1.2965 6.52175L1.8065 7.217C1.9985 7.478 2.1245 7.78175 2.17325 8.102L2.30375 8.95475C2.36225 9.3365 2.66225 9.6365 3.044 9.695L3.896 9.8255C4.21632 9.87434 4.52001 10.0002 4.781 10.1922L5.477 10.7022C5.7875 10.931 6.21125 10.931 6.5225 10.7022L7.21775 10.1922C7.47873 10.0002 7.78242 9.87434 8.10275 9.8255L8.9555 9.695C9.14158 9.66639 9.31369 9.57919 9.44681 9.44606C9.57994 9.31294 9.66714 9.14083 9.69575 8.95475L9.82625 8.10275C9.87509 7.78242 10.0009 7.47873 10.193 7.21775L10.703 6.52175C10.8145 6.37025 10.8746 6.18709 10.8746 5.999C10.8746 5.81091 10.8145 5.62774 10.703 5.47625L10.193 4.781C10.0014 4.51978 9.87556 4.2162 9.82625 3.896L9.69575 3.04325C9.66725 2.85712 9.58008 2.68495 9.44694 2.5518C9.31379 2.41866 9.14162 2.33149 8.9555 2.303L8.1035 2.1725C7.78323 2.12345 7.47958 1.99762 7.2185 1.80575L6.5225 1.29575C6.371 1.18427 6.18784 1.12414 5.99975 1.12414C5.81166 1.12414 5.62849 1.18427 5.477 1.29575ZM8.45975 5.08475L5.64725 7.89725C5.54178 8.00258 5.39881 8.06175 5.24975 8.06175C5.10068 8.06175 4.95772 8.00258 4.85225 7.89725L3.53975 6.58475C3.44044 6.47805 3.38636 6.33701 3.38888 6.19127C3.3914 6.04554 3.45031 5.90645 3.55325 5.80325C3.65645 5.70031 3.79554 5.6414 3.94127 5.63888C4.08701 5.63636 4.22805 5.69044 4.33475 5.78975L5.24975 6.70475L7.66475 4.28975C7.77144 4.19044 7.91248 4.13636 8.05822 4.13888C8.20396 4.1414 8.34304 4.20031 8.44625 4.30325C8.54918 4.40645 8.6081 4.54554 8.61061 4.69127C8.61313 4.83701 8.55905 4.97805 8.45975 5.08475Z" fill="#6E7681"/>
</svg>
